#!OML:ASF E:\acrobat2\Project_11_07_03\Capture day 1\Session 1\Acrobat.ASF
:FULLY-SPECIFIED
:DEGREES
105
root 10.0166 21.5726 -18.5007 5.28988 1.81707 -0.659454
lowerback -9.83405 -1.11874 -1.67006
upperback -1.64076 -1.29206 -0.424182
thorax 3.83259 -0.658839 0.331945
lowerneck 5.48988 -11.8606 -8.13143
upperneck 2.62952 -16.4484 9.02089
head 1.47324 -8.34385 4.24381
rclavicle -8.59744e-015 -1.31198e-014
rhumerus -40.3988 -7.22541 -81.2346
rradius 23.6884
rwrist 7.08536
rhand -4.2164 -25.7147
rfingers 7.12502
rthumb 21.5461 -54.5362
lclavicle -8.59744e-015 -1.31198e-014
lhumerus -34.312 0.592771 84.2405
lradius 22.415
lwrist 6.54919
lhand -6.74694 -13.5843
lfingers 7.12502
lthumb 19.1142 15.4964
rfemur 5.97868 8.04201 19.8084
rtibia -2.54608
rfoot -16.1279 -13.5872
rtoes 19.6511
lfemur 3.59336 -5.16075 -15.1271
ltibia 0.0663416
lfoot -8.27695 -0.716731
ltoes 5.19381
106
root 10.0179 21.5727 -18.5062 5.25886 1.78458 -0.745631
lowerback -9.81724 -1.10143 -1.53829
upperback -1.64725 -1.28457 -0.395198
thorax 3.81416 -0.65352 0.28934
lowerneck 5.66595 -11.833 -8.153
upperneck 2.44848 -16.4134 9.06963
head 1.38582 -8.33149 4.28573
rclavicle 1.84e-014 1.07344e-014
rhumerus -40.4206 -7.15632 -81.2196
rradius 23.6984
rwrist 7.05669
rhand -4.21504 -25.656
rfingers 7.12502
rthumb 21.5474 -54.4774
lclavicle 1.84e-014 1.07344e-014
lhumerus -34.3452 0.596763 84.2543
lradius 22.4771
lwrist 6.54388
lhand -6.74619 -13.5572
lfingers 7.12502
lthumb 19.1149 15.5235
rfemur 5.95903 7.95537 19.8834
rtibia -2.50916
rfoot -16.0869 -13.4821
rtoes 19.5887
lfemur 3.62248 -5.15256 -15.0331
ltibia 0.047769
lfoot -8.29583 -0.686288
ltoes 5.12953
107
root 10.0189 21.5727 -18.5119 5.23004 1.76963 -0.800307
lowerback -9.78895 -1.09578 -1.43914
upperback -1.65784 -1.28907 -0.372819
thorax 3.78586 -0.654481 0.256925
lowerneck 5.74539 -11.8078 -8.19631
upperneck 2.31421 -16.3805 9.12755
head 1.33401 -8.31799 4.32524
rclavicle -6.65929e-015 -6.36111e-015
rhumerus -40.438 -7.09785 -81.1943
rradius 23.7014
rwrist 7.05396
rhand -4.28449 -25.4848
rfingers 7.12502
rthumb 21.4807 -54.3138
lclavicle -6.65929e-015 -6.36111e-015
lhumerus -34.381 0.586603 84.2728
lradius 22.5415
lwrist 6.55237
lhand -6.74505 -13.5275
lfingers 7.12502
lthumb 19.116 15.5531
rfemur 5.94577 7.87591 19.9243
rtibia -2.48131
rfoot -16.0576 -13.3971
rtoes 19.6203
lfemur 3.63854 -5.15513 -14.9759
ltibia 0.0434606
lfoot -8.31499 -0.669205
ltoes 5.03359
108
root 10.0191 21.5729 -18.518 5.20352 1.78342 -0.810435
lowerback -9.75024 -1.10166 -1.39439
upperback -1.66922 -1.30277 -0.363768
thorax 3.75197 -0.660597 0.240281
lowerneck 5.73429 -11.7947 -8.22858
upperneck 2.26486 -16.3621 9.1578
head 1.32381 -8.30913 4.34271
rclavicle -8.57259e-015 -5.96354e-015
rhumerus -40.4541 -7.06437 -81.1643
rradius 23.7073
rwrist 7.07304
rhand -4.38242 -25.3003
rfingers 7.12502
rthumb 21.3867 -54.1399
lclavicle -8.57259e-015 -5.96354e-015
lhumerus -34.4114 0.538983 84.297
lradius 22.6143
lwrist 6.58819
lhand -6.73807 -13.4832
lfingers 7.12502
lthumb 19.1227 15.5967
rfemur 5.94656 7.83999 19.9284
rtibia -2.47342
rfoot -16.0583 -13.377
rtoes 19.7227
lfemur 3.63205 -5.15796 -14.9638
ltibia 0.0640923
lfoot -8.31861 -0.68461
ltoes 4.9363
109
root 10.0183 21.573 -18.5248 5.1796 1.81576 -0.783777
lowerback -9.70788 -1.10935 -1.39642
upperback -1.67466 -1.3133 -0.371731
thorax 3.72283 -0.665675 0.232709
lowerneck 5.64328 -11.7873 -8.24267
upperneck 2.31129 -16.3509 9.16974
head 1.35657 -8.30142 4.34085
rclavicle 2.31708e-014 1.39149e-014
rhumerus -40.4593 -7.08342 -81.1316
rradius 23.714
rwrist 7.11892
rhand -4.45211 -25.2017
rfingers 7.12502
rthumb 21.3198 -54.049
lclavicle 2.31708e-014 1.39149e-014
lhumerus -34.4269 0.443929 84.324
lradius 22.7019
lwrist 6.65231
lhand -6.72032 -13.4088
lfingers 7.12502
lthumb 19.1398 15.6694
rfemur 5.95685 7.86135 19.9071
rtibia -2.47935
rfoot -16.097 -13.4192
rtoes 19.8917
lfemur 3.60446 -5.16078 -14.9875
ltibia 0.107101
lfoot -8.30937 -0.720476
ltoes 4.86502
110
root 10.0165 21.5733 -18.5321 5.1585 1.85584 -0.731662
lowerback -9.66766 -1.11239 -1.4324
upperback -1.66891 -1.31335 -0.395699
thorax 3.7067 -0.665984 0.228793
lowerneck 5.48647 -11.804 -8.20522
upperneck 2.44228 -16.3688 9.13219
head 1.42201 -8.30574 4.30402
rclavicle 7.72775e-015 3.97569e-015
rhumerus -40.4406 -7.16335 -81.0978
rradius 23.7109
rwrist 7.18484
rhand -4.47114 -25.2053
rfingers 7.12502
rthumb 21.3015 -54.0546
lclavicle 7.72775e-015 3.97569e-015
lhumerus -34.4137 0.301765 84.3531
lradius 22.7953
lwrist 6.74343
lhand -6.69414 -13.3064
lfingers 7.12502
lthumb 19.165 15.7694
rfemur 5.97135 7.93638 19.8714
rtibia -2.49169
rfoot -16.167 -13.5059
rtoes 20.1324
lfemur 3.56141 -5.16612 -15.0355
ltibia 0.165789
lfoot -8.29659 -0.761566
ltoes 4.81937
111
root 10.0142 21.5735 -18.5394 5.13885 1.89317 -0.670491
lowerback -9.6355 -1.10908 -1.4792
upperback -1.65053 -1.30319 -0.429564
thorax 3.70805 -0.661432 0.221677
lowerneck 5.33918 -11.8292 -8.12622
upperneck 2.57574 -16.3957 9.06961
head 1.481 -8.31419 4.25204
rclavicle 1.44616e-014 3.97569e-015
rhumerus -40.3911 -7.28255 -81.068
rradius 23.6872
rwrist 7.25732
rhand -4.45821 -25.2451
rfingers 7.12502
rthumb 21.3139 -54.093
lclavicle 1.44616e-014 3.97569e-015
lhumerus -34.3689 0.139147 84.3788
lradius 22.8828
lwrist 6.84434
lhand -6.65679 -13.1872
lfingers 7.12502
lthumb 19.2009 15.885
rfemur 5.98616 8.03216 19.8309
rtibia -2.50336
rfoot -16.2494 -13.6038
rtoes 20.3701
lfemur 3.51674 -5.16933 -15.0928
ltibia 0.225778
lfoot -8.28453 -0.801356
ltoes 4.77316
112
root 10.0122 21.5737 -18.5462 5.11843 1.91847 -0.618282
lowerback -9.61621 -1.09775 -1.50757
upperback -1.62185 -1.28371 -0.46807
thorax 3.72657 -0.652138 0.200195
lowerneck 5.197 -11.8614 -8.01894
upperneck 2.72233 -16.4307 8.97814
head 1.53855 -8.32635 4.18524
rclavicle -8.79622e-015 -6.36111e-015
rhumerus -40.3146 -7.41846 -81.0457
rradius 23.6413
rwrist 7.32676
rhand -4.45932 -25.25
rfingers 7.12502
rthumb 21.3128 -54.098
lclavicle -8.79622e-015 -6.36111e-015
lhumerus -34.3013 -0.0216559 84.3971
lradius 22.9572
lwrist 6.93585
lhand -6.61235 -13.0794
lfingers 7.12502
lthumb 19.2436 15.9886
rfemur 5.99693 8.10347 19.7939
rtibia -2.50474
rfoot -16.3218 -13.6727
rtoes 20.5006
lfemur 3.48554 -5.16459 -15.1434
ltibia 0.271473
lfoot -8.27509 -0.837894
ltoes 4.6979
113
root 10.011 21.5739 -18.5524 5.09717 1.92748 -0.585656
lowerback -9.61121 -1.07428 -1.4992
upperback -1.5858 -1.25141 -0.508988
thorax 3.75968 -0.636113 0.156831
lowerneck 5.09204 -11.897 -7.90018
upperneck 2.82705 -16.4693 8.88422
head 1.57453 -8.34118 4.12006
rclavicle -1.34801e-014 -9.93923e-015
rhumerus -40.2219 -7.56594 -81.028
rradius 23.5818
rwrist 7.38839
rhand -4.48116 -25.2092
rfingers 7.12502
rthumb 21.2918 -54.0596
lclavicle -1.34801e-014 -9.93923e-015
lhumerus -34.2154 -0.182108 84.4119
lradius 23.0117
lwrist 7.01012
lhand -6.57705 -13.0347
lfingers 7.12502
lthumb 19.2776 16.0299
rfemur 6.00174 8.13041 19.7664
rtibia -2.49743
rfoot -16.3645 -13.6953
rtoes 20.5011
lfemur 3.47268 -5.15736 -15.179
ltibia 0.297283
lfoot -8.27539 -0.863138
ltoes 4.60045
114
root 10.0108 21.5738 -18.5581 5.0782 1.91625 -0.570088
lowerback -9.61754 -1.03768 -1.45621
upperback -1.54455 -1.20489 -0.549969
thorax 3.80364 -0.612651 0.0954893
lowerneck 4.9886 -11.935 -7.78152
upperneck 2.90276 -16.5097 8.79353
head 1.60097 -8.35709 4.05721
rclavicle -1.35795e-014 -4.37326e-015
rhumerus -40.1191 -7.70758 -81.016
rradius 23.5223
rwrist 7.43283
rhand -4.49789 -25.1571
rfingers 7.12502
rthumb 21.2758 -54.0093
lclavicle -1.35795e-014 -4.37326e-015
lhumerus -34.1147 -0.337476 84.4282
lradius 23.0459
lwrist 7.06324
lhand -6.56542 -13.0874
lfingers 7.12502
lthumb 19.2887 15.976
rfemur 5.9978 8.11749 19.7434
rtibia -2.48935
rfoot -16.3703 -13.6722
rtoes 20.4071
lfemur 3.47332 -5.15689 -15.2052
ltibia 0.304543
lfoot -8.29199 -0.867243
ltoes 4.5362
115
root 10.0114 21.5734 -18.5639 5.06304 1.88634 -0.556373
lowerback -9.62195 -0.992978 -1.40222
upperback -1.50452 -1.14884 -0.59001
thorax 3.84509 -0.584279 0.0302376
lowerneck 4.84559 -11.9699 -7.68414
upperneck 2.9582 -16.545 8.73447
head 1.63228 -8.36986 4.00661
rclavicle -4.02539e-015 -7.95139e-016
rhumerus -40.0213 -7.81944 -81.0136
rradius 23.4817
rwrist 7.44749
rhand -4.48486 -25.1274
rfingers 7.12502
rthumb 21.2883 -53.9783
lclavicle -4.02539e-015 -7.95139e-016
lhumerus -34.0104 -0.487701 84.4522
lradius 23.0648
lwrist 7.10456
lhand -6.59015 -13.2195
lfingers 7.12502
lthumb 19.265 15.8463
rfemur 5.98481 8.08014 19.7098
rtibia -2.485
rfoot -16.3457 -13.6165
rtoes 20.2703
lfemur 3.47925 -5.15516 -15.2363
ltibia 0.29992
lfoot -8.31675 -0.858185
ltoes 4.55519
116
root 10.0122 21.5728 -18.5701 5.05037 1.8477 -0.535309
lowerback -9.61226 -0.948511 -1.36083
upperback -1.47498 -1.09244 -0.624856
thorax 3.8683 -0.555789 -0.0221101
lowerneck 4.68406 -11.9957 -7.60364
upperneck 3.02557 -16.5692 8.68356
head 1.67216 -8.3768 3.96035
rclavicle -2.34814e-015 -7.15625e-015
rhumerus -39.952 -7.88542 -81.0194
rradius 23.4753
rwrist 7.42668
rhand -4.43005 -25.1385
rfingers 7.12502
rthumb 21.3409 -53.9834
lclavicle -2.34814e-015 -7.15625e-015
lhumerus -33.9198 -0.622524 84.4854
lradius 23.0734
lwrist 7.13499
lhand -6.64897 -13.3825
lfingers 7.12502
lthumb 19.2084 15.6889
rfemur 5.96724 8.03455 19.6623
rtibia -2.4885
rfoot -16.3046 -13.5437
rtoes 20.1674
lfemur 3.48399 -5.13569 -15.2758
ltibia 0.291457
lfoot -8.33222 -0.854138
ltoes 4.65374
117
root 10.0128 21.572 -18.5767 5.03875 1.81412 -0.511863
lowerback -9.58618 -0.913822 -1.3388
upperback -1.46354 -1.04814 -0.645969
thorax 3.86444 -0.533467 -0.0503971
lowerneck 4.55058 -12.004 -7.56556
upperneck 3.10104 -16.5752 8.66174
head 1.71524 -8.37583 3.93369
rclavicle -9.93923e-015 -7.15625e-015
rhumerus -39.9266 -7.89565 -81.0277
rradius 23.502
rwrist 7.37996
rhand -4.36604 -25.1749
rfingers 7.12502
rthumb 21.4024 -54.0128
lclavicle -9.93923e-015 -7.15625e-015
lhumerus -33.8629 -0.718476 84.5247
lradius 23.0762
lwrist 7.14832
lhand -6.72588 -13.5376
lfingers 7.12502
lthumb 19.1344 15.5411
rfemur 5.94953 7.9902 19.6141
rtibia -2.4962
rfoot -16.2675 -13.4677
rtoes 20.1535
lfemur 3.48664 -5.09227 -15.3119
ltibia 0.278719
lfoot -8.32097 -0.868708
ltoes 4.82249
118
root 10.0128 21.5712 -18.5836 5.02698 1.79525 -0.492567
lowerback -9.5448 -0.893981 -1.33385
upperback -1.47182 -1.02307 -0.649425
thorax 3.83242 -0.520846 -0.052786
lowerneck 4.47672 -11.9898 -7.57879
upperneck 3.17205 -16.5578 8.67918
head 1.75334 -8.3652 3.93455
rclavicle 6.62201e-015 9.54166e-015
rhumerus -39.946 -7.8572 -81.0333
rradius 23.5521
rwrist 7.32418
rhand -4.32518 -25.2137
rfingers 7.12502
rthumb 21.4417 -54.0471
lclavicle 6.62201e-015 9.54166e-015
lhumerus -33.8447 -0.775551 84.57
lradius 23.0753
lwrist 7.15624
lhand -6.80354 -13.6692
lfingers 7.12502
lthumb 19.0598 15.417
rfemur 5.93432 7.95435 19.5776
rtibia -2.49602
rfoot -16.2566 -13.3962
rtoes 20.2801
lfemur 3.48681 -5.03294 -15.3345
ltibia 0.263169
lfoot -8.28202 -0.90308
ltoes 5.03521
119
root 10.0123 21.5705 -18.5908 5.01364 1.79361 -0.481776
lowerback -9.49032 -0.890442 -1.34137
upperback -1.49598 -1.01957 -0.635338
thorax 3.77736 -0.519036 -0.0323452
lowerneck 4.45467 -11.9598 -7.62539
upperneck 3.24505 -16.5244 8.71162
head 1.78638 -8.34821 3.95067
rclavicle -1.39646e-014 -8.34896e-015
rhumerus -40.0029 -7.77448 -81.0386
rradius 23.6218
rwrist 7.26325
rhand -4.32136 -25.2391
rfingers 7.12502
rthumb 21.4453 -54.0721
lclavicle -1.39646e-014 -8.34896e-015
lhumerus -33.8546 -0.800768 84.6171
lradius 23.0683
lwrist 7.17373
lhand -6.86548 -13.7646
lfingers 7.12502
lthumb 19.0002 15.3274
rfemur 5.92147 7.93459 19.5607
rtibia -2.48153
rfoot -16.2775 -13.339
rtoes 20.5363
lfemur 3.48186 -4.96703 -15.3383
ltibia 0.252474
lfoot -8.22753 -0.954677
ltoes 5.22289
